# xmcd
#
# Track frame offsets: 
#        150
#        19598
#        34300
#        55878
#        79951
#        98452
#        132057
#
# Disc length: 2086 seconds
#
# Revision: 0
# Processed by: cddbd v1.5.2PL0 Copyright (c) Steve Scherf et al.
# Submitted via: ExactAudioCopy v1.0b1
#
DISCID=4d082407
DTITLE=Michael Henderson - Do It All
DYEAR=1979
DGENRE=Funk
TTITLE0=Playing On The Real Thing
TTITLE1=Everybody Wants To Know Why
TTITLE2=To Be Loved
TTITLE3=Do It All
TTITLE4=In The Summertime
TTITLE5=Wait Until The Rain
TTITLE6=Riding
EXTD=
EXTT0=
EXTT1=
EXTT2=
EXTT3=
EXTT4=
EXTT5=
EXTT6=
PLAYORDER=
